
Plot

In the sleepy small town of Dudley, Ohio, a terrifying future awaits. Laura
Childs (Erin Wilk) is almost raped by a normal lawyer who appears to have gone crazy...


Cast

Erin Wilk ... Laura Childs
Stephen Seidel ... Jack Walther
Peter Blitzer ... Sheriff Brown
Chris Ferry ... Deputy Greer
Matt Regney ... Rick Gerber
Vickie Myers ... Catherine Myers
Jaime Whitlock ... Amber West
Emily Ackerman ... Barbara Clemens
Doug Sobon ... Hank Clemens
Brooke Delaney ... Sally Sherman
Patrick Pope ... Sam Sherman
 
http://www.imdb.com/title/tt1116047/

General
Complete name : Rise of The Dead 2007 DVDRip Xvid BigPerm LKRG\RoTD_LKRG.avi
Format : AVI
Format/Info : Audio Video Interleave
File size : 641 MiB
Duration : 1h 11mn
Overall bit rate : 1 251 Kbps

Video
ID : 0
Format : MPEG-4 Visual
Format profile : Advanced Simple@L5
Format settings, BVOP : Yes
Format settings, QPel : No
Format settings, GMC : No warppoints
Format settings, Matrix : Default (H.263)
Codec ID : XVID
Codec ID/Hint : XviD
Duration : 1h 11mn
Bit rate : 1 053 Kbps
Width : 704 pixels
Height : 396 pixels
Display aspect ratio : 16:9
Frame rate : 29.970 fps
Color space : YUV
Chroma subsampling : 4:2:0
Bit depth : 8 bits
Scan type : Progressive
Compression mode : Lossy
Bits/(Pixel*Frame) : 0.126
Stream size : 539 MiB (84%)
Writing library : XviD 1.2.1 (UTC 2008-12-04)

Audio
ID : 1
Format : AC-3
Format/Info : Audio Coding 3
Mode extension : CM (complete main)
Codec ID : 2000
Duration : 1h 11mn
Bit rate mode : Constant
Bit rate : 192 Kbps
Channel(s) : 2 channels
Channel positions : Front: L R
Sampling rate : 48.0 KHz
Bit depth : 16 bits
Compression mode : Lossy
Video delay : 33ms
Stream size : 98.3 MiB (15%)
Alignment : Split accross interleaves
Interleave, duration : 500 ms (14.98 video frames)
Interleave, preload duration : 500 ms
 
http://www.grinshare.com/img/KH1442.png
 
http://www.grinshare.com/img/M4G4OQ.png
 
http://www.grinshare.com/img/7YWDFI.png
 
http://www.grinshare.com/img/GIT10Z.png